# xmcd
# Copyright (C) 1995-1998 Ti Kan
#
# Track frame offsets:
#       150
#       15350
#       32376
#       48002
#       63017
#       93886
#
# Disc length: 1414 seconds
#
# Revision: 0
# Processed by: cddbd v1.5.1PL0 Copyright (c) Steve Scherf et al.
# Submitted via: CD-Transfer v1.0
#
DISCID=2f058406
DTITLE=Anna Balchan - 
DYEAR=2004
DGENRE=
TTITLE0=Bog Jest Tu
TTITLE1=Dobrze Ze Jestes
TTITLE2=Piszesz Do Mnie
TTITLE3=Wdowi Grosz
TTITLE4=Slonce Juz Wzeszlo
TTITLE5=Oswiec Droge Ma
EXTD=
EXTT0=
EXTT1=
EXTT2=
EXTT3=
EXTT4=
EXTT5=
PLAYORDER=
